<?xml version="1.0" encoding="UTF-8"?>
<svg xmlns="http://www.w3.org/2000/svg" viewBox="0 0 1195.73 593.02">
  <defs>
    <style>
      .cls-1 {
      fill: #fff;
      }

      .cls-2 {
      fill: #858784;
      }
    </style>
  </defs>
  <g id="Cut_Flattened" data-name="Cut Flattened">
    <path id="Green" class="cls-2"
      d="M630.32,196.43c-15.47-16.56-36.73-25.31-61.49-25.31s-46.2,8.79-61.89,24.75c-16.56,16.85-25.31,40.38-25.31,68.06s8.41,49.1,24.31,65.58c15.31,15.86,36.71,24.6,60.25,24.6s43.94-7.94,59.65-22.36c18.24-16.74,27.88-41.1,27.88-70.45,0-26.05-8.09-48.48-23.4-64.86Zm-62.81,119.89c-23.47,0-40.51-22.45-40.51-53.38,0-14.69,3.67-28.15,10.32-37.89,7.32-10.71,17.7-16.15,30.85-16.15s22.89,5.67,30.06,16.86c6.22,9.7,9.79,23.01,9.79,36.52,0,15.55-4.31,29.6-12.15,39.56-7.34,9.34-17.42,14.48-28.36,14.48Zm177.87-145.2c-14.71,0-28.27,6.4-38.35,17.36l-.19-5.98-.24-7.75h-41.71l.57,8.53c.9,13.51,1.3,28.72,1.3,49.3v117.89h44.71v-93.14c0-4.33,.58-8.4,1.2-12.16,3.46-18.92,15.36-30.66,31.06-30.66,3.2,0,5.64,.24,8.16,.8l9.74,2.16v-43.61l-6.06-1.51c-3.49-.87-6.44-1.23-10.19-1.23h0Zm173.63,170.63c-1.12-12.32-1.29-30.68-1.29-40.53V100.17h-45.04v83.48c-2.02-1.5-4.17-2.88-6.43-4.14-10.01-5.57-21.59-8.39-34.41-8.39-20.12,0-39.06,7.9-53.32,22.25-17.13,17.24-26.47,42.67-26.29,71.6,0,25.03,7.68,47.76,21.61,63.95,13.98,16.24,33.4,25.18,54.7,25.18,13.8,0,26.87-3.51,37.81-10.15,3.72-2.26,7.17-4.86,10.31-7.75l.32,6.65,.36,7.62h42.46l-.79-8.72Zm-47.44-104.39l.03,.15,.04,.15c.64,2.35,1.04,6.22,1.04,10.1v27.72c0,4.4-.32,7.57-1.08,10.6v.03s-.01,.03-.01,.03c-2.11,8.69-6.65,15.99-13.14,21.09-6.19,4.87-13.68,7.44-21.66,7.44-12.29,0-22.01-4.76-28.9-14.14-6.63-9.03-10.29-22.14-10.29-36.93,0-15.77,3.93-29.73,11.08-39.32,7.02-9.42,16.97-14.39,28.77-14.39,19.16,0,30.94,13.8,34.12,27.47Zm115.78-137.19h-45.04v250.3h45.04V100.17h0Zm155.84,101.15c-13.03-19.76-33.51-30.2-59.23-30.2-12.51,0-24.19,2.5-34.73,7.44-10.12,4.74-18.98,11.62-26.32,20.44-14.1,16.93-21.86,40.46-21.86,66.25,0,53.77,33.97,88.52,86.54,88.52,27.22,0,45.71-5.77,56.42-10.61l6.02-2.72-1.53-6.43-4.95-20.79-2.19-9.21-8.71,3.7c-9.32,3.95-20.75,7.61-41.1,7.61-13.4,0-24.7-3.79-32.69-10.95-7.49-6.71-12.03-16.28-13.54-28.49h110.81l.79-7.12c.05-.41,.1-.85,.15-1.32,.35-3,.89-7.53,.89-13.09,0-9.21-1.44-32.82-14.77-53.04Zm-29.71,37.78h-66.71c1.87-6.86,4.91-13.24,8.79-18.25,6.64-8.59,15.42-12.94,26.09-12.94,9.26,0,16.65,2.75,21.97,8.16,6.59,6.71,9,16.11,9.86,23.03ZM152.71,374.35c-30.15,0-65.27-8.83-83.53-21l-2.47-1.64,12.75-42.32,4.43,2.72c20.56,12.65,47.34,20.21,71.65,20.21,38.65,0,62.65-19.3,62.65-50.36,0-27.33-15.56-43.48-57.42-59.59-59.19-21-86.76-50.88-86.76-94.04,0-25.46,10.55-48.51,29.7-64.91,19.57-16.75,46.32-25.6,77.35-25.6,38.25,0,61.78,10.1,72.41,16.12l2.88,1.63-13.93,41.21-4.18-2.28c-12.24-6.68-32.35-14.64-58.59-14.64-27.89,0-56.04,13.53-56.04,43.74,0,25.88,14.77,39.91,60.79,57.72,29.17,11.26,48.99,23.36,62.38,38.09,14.46,15.9,21.49,35.28,21.49,59.24,0,26.45-10.27,50.34-28.91,67.25-20.52,18.62-50.48,28.46-86.65,28.46Zm335.54,49.82c-4.67,35.49-23,70.45-38.49,96.97-6.68,14.95-5.42,35.21-5.41,35.41l.18,2.67,.22,3.2h-3.21s-2.68,0-2.68,0h-143.29l.18-3.17,.92-16.35v-.12s.02-.12,.02-.12c.58-4.28,1.23-8.4,1.86-12.38,2.99-18.88,4.71-34.82-2.49-53.61h0s0-.03,0-.03c-2.24-5.16-5.61-11-9.17-17.18-7.69-13.33-16.4-28.43-17.19-43-.17-.92-.32-1.76-.44-2.55-3.71-24.4,3.74-41.64,22.76-52.64-7.1-54.65-16.17-120.31-18.31-134.94-1.05-7.18,.16-15.68,3.33-23.3,3.46-8.32,8.77-14.55,14.94-17.53,2.75-1.33,5.61-2,8.51-2,8.23,0,14.92,5.3,19.09,9.74,5.98,6.38,8.94,20.53,12.08,35.51,1.33,6.34,2.58,12.33,3.97,17.1,1.75,6.02,5.15,23.25,9.49,45.61,3.43-51.2,6.63-104.63,7.2-115.45,.42-7.99,3.46-16.17,8.58-23.01,4.8-6.42,10.87-10.96,16.68-12.45,1.65-.42,3.31-.64,4.94-.64,0,0,0,0,0,0,10.21,0,16.91,8.34,19.99,13.32,4.49,7.24,4.61,21.26,4.74,36.1,.05,6.28,.11,12.21,.52,17,.58,6.77,.45,27.21,.29,53.08v.07c-.08,12.13-.16,25.23-.18,38.12,8.69-36.93,16.66-71.54,18.8-81.13,1.65-7.41,5.78-14.58,11.65-20.18,5.5-5.25,11.92-8.55,17.6-9.03,.53-.04,1.07-.07,1.6-.07,4.99,0,14.21,2.07,19.88,15.91l.05,.11h0c3,7.53,.93,20.55-1.27,34.36-.92,5.8-1.79,11.28-2.16,15.76-.52,6.38-3.82,25.29-8.01,49.25-1.36,7.77-2.87,16.46-4.38,25.2,4.96,.91,15.02,8.13,18.25,13.29,2.93,4.68,4.16,9.49,3.96,15.51,7.22,19.75,6.91,48.66,4.42,67.57Z" />
    <path id="White" class="cls-1"
      d="M566.18,346.1c38.61,0,79.53-25.74,79.53-84.81,0-48.84-31.02-82.17-76.89-82.17s-79.2,31.35-79.2,84.81c0,50.49,33.33,82.17,76.56,82.17Zm1.98-145.2c34.32,0,47.85,34.32,47.85,61.38,0,35.97-20.79,62.04-48.51,62.04s-48.51-26.4-48.51-61.38c0-30.36,14.85-62.04,49.17-62.04Zm106.59,141.57v-109.89c0-18.81-.33-34.98-1.32-49.83h25.41l.99,31.35h1.32c7.26-21.45,24.75-34.98,44.22-34.98,3.3,0,5.61,.33,8.25,.99v27.39c-2.97-.66-5.94-.99-9.9-.99-20.46,0-34.98,15.51-38.94,37.29-.66,3.96-1.32,8.58-1.32,13.53v85.14h-28.71Zm416.79-19.14c-29.04,0-54.12-16.17-54.78-55.44h112.2c.33-2.97,.99-7.59,.99-13.53,0-29.37-13.86-75.24-66-75.24-46.53,0-74.91,37.95-74.91,86.13s29.37,80.52,78.54,80.52c25.41,0,42.9-5.28,53.13-9.9l-4.95-20.79c-10.89,4.62-23.43,8.25-44.22,8.25Zm-9.9-123.42c32.67,0,40.59,28.71,40.26,47.19h-84.81c2.31-20.13,15.18-47.19,44.55-47.19Zm-102.3,142.56h-29.04V108.17h29.04v234.3Zm-68.31,0c-.99-10.89-1.32-27.06-1.32-41.25V108.17h-29.04v95.37h-.66c-7.26-12.87-23.76-24.42-48.18-24.42-38.94,0-71.94,32.67-71.61,85.8,0,48.51,29.7,81.18,68.31,81.18,26.07,0,45.54-13.53,54.45-31.35h.66l1.32,27.72h26.07Zm-30.36-66.99c0,4.62-.33,8.58-1.32,12.54-5.28,21.78-23.1,34.65-42.57,34.65-31.35,0-47.19-26.73-47.19-59.07,0-35.31,17.82-61.71,47.85-61.71,21.78,0,37.62,15.18,41.91,33.66,.99,3.63,1.32,8.58,1.32,12.21v27.72ZM152.71,366.35c-27.4,0-58.92-7.51-76.6-18.09l8.05-26.72c21.29,11.97,47.01,18.77,71.38,18.77,42.92,0,70.65-22.91,70.65-58.36,0-30.94-17.55-49.75-62.6-67.08l-.1-.04c-55.59-19.71-81.48-47.2-81.48-86.52,0-48.58,40.73-82.51,99.05-82.51,33.22,0,54.53,7.86,65.56,13.52l-8.77,25.94c-13.24-6.56-33.1-13.43-58.21-13.43-20.68,0-37.66,5.82-49.1,16.84-9.49,9.14-14.93,21.86-14.93,34.91,0,33.35,23.16,48.64,65.9,65.18,55.93,21.59,78.75,47.62,78.75,89.87,0,24.17-9.33,45.95-26.28,61.33-19.02,17.26-47.13,26.38-81.28,26.38Zm290,151.01c-6.3,13.54-6.61,30.64-6.45,37.07h-132.22c.14-7.73,1.41-17.3,2.72-24.74,15.18-60.5-30.53-78.74-30.32-130.72h0c5.7-53.79,87.36-36.75,121.93-63.86,8.2-5.07,23.2-15.63,23.73,1.58,1.88,19.82-14.28,34.42-21.31,39.78-13.38,10.15-28.79,9.25-42.42,19.1,13.4,21.36,15.03,43.48,13.6,70.1,.01,3.16,.02,5.45,2.42,5.77,.7,.09,1.79,.5,2.45-2.06,1.53-25.35,.74-51.53-11.85-72.08,12.9-7.27,26.24-7.12,38.83-16.85,16.27-12.39,24.75-28.51,23.26-44.22-.87-11.57-7.2-16.59-17.05-13,8.25-34.83,16.57-70.27,24.44-104.99,4.02-17.13,26.79-34.97,35.51-12.07,2.22,5.43,.13,18.56-1.72,30.15-2.93,24.05-9.63,62.4-15.38,95.11-13.27,4.42-24.74,26.89-30.72,41.17-6.31,14.03-20.37,25.33-27.78,39.35-10.89,22.16,8.23,31.17,25.54,26.52,26.52-7.69,51.59-47.36,59.12-69.62,3.56,17.24,3.38,35.11,1.51,52.54-4.08,34.69-22.42,69.61-37.83,95.97ZM281.61,225.18c6.4,45.03,12.48,90.29,18.37,135.41,14.44-6.45,31.96-9.52,47.97-12.9-5.35-26-15.81-83.59-20.01-99.59-4.05-13.11-7.25-41.52-14.21-49.38-17.43-20.16-34.99,6.93-32.12,26.46Zm78.68-48.74c-.72,14.46-6.9,115.4-11.1,170.99,17.97-3.22,35.38-8.38,50.8-19.21-.66-32.39,.87-96.35-.22-121.2-1.35-13.22,1.01-40.78-4.09-49.57-13.26-22.62-34.2,.16-35.4,18.98Zm79.71,172.64c-6.1,7.31-8.74,17.47-13.48,25.93-6.06,13.65-20.29,25.61-27.65,39.1-8.19,15.83,3.61,23.51,19.96,19.46,20-5.78,33.36-27.79,40.84-38.29,12.07-16.06,27.92-46.88,2.7-58.77-1.54-1.04-3.4-.9-5.15-.84-7.96,1.49-9.29,4.85-17.21,13.42Z" />
  </g>
</svg>
